<?xml version="1.0" encoding="UTF-8" standalone="no"?>
<svg width="1024px" height="1024px" viewBox="0 0 1024 1024" version="1.1" xmlns="http://www.w3.org/2000/svg" xmlns:xlink="http://www.w3.org/1999/xlink" xmlns:sketch="http://www.bohemiancoding.com/sketch/ns">
    <!-- Generator: Sketch 3.1.1 (8761) - http://www.bohemiancoding.com/sketch -->
    <title>Design2</title>
    <desc>Created with Sketch.</desc>
    <defs>
        <linearGradient x1="50%" y1="0%" x2="50%" y2="100%" id="linearGradient-1">
            <stop stop-color="#FF5E3A" offset="0%"></stop>
            <stop stop-color="#FF2A68" offset="100%"></stop>
        </linearGradient>
    </defs>
    <g id="Page-1" stroke="none" stroke-width="1" fill="none" fill-rule="evenodd" sketch:type="MSPage">
        <g id="Design2" sketch:type="MSArtboardGroup">
            <circle id="Oval-1" fill="url(#linearGradient-1)" sketch:type="MSShapeGroup" cx="512" cy="512" r="512"></circle>
            <g id="glasses" sketch:type="MSLayerGroup" transform="translate(95.000000, 237.000000)" fill="#FFFFFF">
                <path d="M834.8998,327.394182 C835.2171,324.522303 834.7829,321.516848 833.5137,318.695061 C821.3394,291.762848 714.1254,54.9497273 700.5817,32.9765152 C688.04,12.6229091 676.8176,0 659.65,0 C643.5512,0 632.7463,11.9049394 620.2881,31.4904848 C610.6188,47.6197576 604.1225,57.3540909 604.0056,57.5377576 C598.8787,65.2016667 600.9662,75.5704848 608.6315,80.6797576 C616.2801,85.7890303 626.6508,83.7186061 631.7944,76.0713939 C631.7944,76.0713939 638.6581,65.8027576 648.6948,49.055697 C654.7068,39.6052121 658.2639,35.6647273 660.0007,34.0785152 C661.7709,35.6647273 665.5785,39.8556667 672.1583,50.5250303 C680.5584,64.1330606 740.4279,194.386121 786.9541,296.872121 C754.3557,289.391879 699.6632,283.848485 607.88,283.848485 C572.6931,283.848485 536.1535,289.742515 503.9058,294.918576 C492.7001,296.721848 481.9453,298.458333 471.8251,299.844182 C462.3061,293.783182 442.8339,283.848485 417.5,283.848485 C392.1828,283.848485 372.6939,293.783182 363.1582,299.844182 C353.0714,298.458333 342.2999,296.721848 331.1109,294.918576 C298.8632,289.742515 262.3069,283.848485 227.12,283.848485 C135.3869,283.848485 80.7111,289.375182 48.1127,296.721848 C94.6389,194.252545 154.475,64.1163636 162.8417,50.5083333 C169.7221,39.3213636 173.5965,35.264 174.8824,33.9616364 C176.5691,35.4643636 180.0928,39.2879697 186.0714,48.6716667 C196.3419,65.7860606 203.1889,76.054697 203.1889,76.054697 C208.2824,83.7186061 218.6531,85.7890303 226.3351,80.6797576 C234.0004,75.5704848 236.0879,65.2016667 230.9777,57.5377576 C230.8608,57.3707879 224.3812,47.6197576 214.4781,31.1064545 C202.2537,11.9049394 191.4488,0 175.35,0 C158.1824,0 146.9433,12.6229091 134.4016,32.9932121 C120.8746,54.9664242 13.6606,291.779545 1.4863,318.711758 C0.3006,321.349879 -0.1503,324.121576 0.0501,326.809788 C0,327.594545 0,328.295818 0,328.930303 C0,344.391697 12.9592,350.202242 19.205,352.990636 C27.4548,356.697364 33.4,359.368879 33.4,379.021212 C33.4,462.172121 83.4165,551 223.78,551 C330.159,551 384.1,489.204515 384.1,367.333333 L384.1,326.192 C390.8468,322.401788 402.7372,317.242424 417.5,317.242424 C432.2795,317.242424 444.1866,322.418485 450.9,326.192 L450.9,367.333333 C450.9,489.204515 504.8243,551 611.22,551 C751.5835,551 801.6,463.00697 801.6,380.690909 C801.6,360.136939 807.445,357.732576 815.5111,354.409879 C821.3394,352.005515 835,346.378636 835,330.6 C835,329.631576 835,328.56297 834.8998,327.394182 L834.8998,327.394182 Z M350.7,367.333333 C350.7,471.27197 311.5552,517.606061 223.78,517.606061 C82.0972,517.606061 66.8,420.680152 66.8,379.021212 C66.8,352.372848 57.2476,338.647939 47.5115,330.933939 C72.6116,324.672576 126.4691,317.242424 227.12,317.242424 C259.6349,317.242424 294.7717,322.902697 325.7836,327.895091 C334.3674,329.280939 342.7174,330.616697 350.7,331.802182 L350.7,367.333333 L350.7,367.333333 Z M768.2,380.690909 C768.2,412.815879 756.8774,517.606061 611.22,517.606061 C523.4448,517.606061 484.3,471.27197 484.3,367.333333 L484.3,331.802182 C492.2993,330.616697 500.6493,329.280939 509.2331,327.895091 C540.245,322.902697 575.3651,317.242424 607.88,317.242424 C709.9003,317.242424 763.4906,325.023212 787.9227,331.518333 C777.9862,339.082061 768.2,352.907152 768.2,380.690909 L768.2,380.690909 Z" id="Shape" sketch:type="MSShapeGroup"></path>
            </g>
        </g>
    </g>
</svg>