<svg version="1.0" id="Layer_1" xmlns="http://www.w3.org/2000/svg" xmlns:xlink="http://www.w3.org/1999/xlink" x="0px" y="0px" width="26.1px" height="26px" viewBox="0 0 26.1 26" style="enable-background:new 0 0 26.1 26;" xml:space="preserve">
<g>
	<path d="M24.8,13.6L24.8,13.6c-0.8-0.2-3-0.5-5.4-0.5c-2.4,0-5,0.9-6.4,0.9c-1.4,0-4-0.9-6.4-0.9S2,13.4,1.2,13.6
		C0.1,13.8,0,14.3,0,14.7s0.1,0.7,0.5,0.9C0.9,15.8,1,16.2,1,17.3C1,20.9,3.4,22,7,22c3.6,0,5-1.8,5-4.6c0.1-0.7,0.2-1.6,1-1.6
		s0.8,0.9,1,1.6c0,2.9,1.4,4.6,5,4.6c3.6,0,6-1.1,6-4.7c0-1,0.1-1.5,0.6-1.7c0.4-0.2,0.5-0.5,0.5-0.9C26.1,14.3,25.9,13.8,24.8,13.6
		z M6.9,20.7c-2.8,0-4.6-0.9-4.6-3.4c0-1.9-0.6-3,3.9-3c3.8,0,4.5,0.5,4.5,2.7C10.8,19.2,9.7,20.7,6.9,20.7z M23.7,17.3
		c0,2.5-1.8,3.4-4.6,3.4s-3.8-1.5-3.8-3.7s0.7-2.7,4.5-2.7C24.2,14.3,23.7,15.4,23.7,17.3z"></path>
	<path d="M16.7,8.3c0.2-0.6,0.8-1.9,1.4-2.3c0.5-0.4,1-0.1,1.4,0.4c0.4,0.6,4.1,5.7,4.5,6.3c0.4,0.1,0.7,0.1,0.9,0.2
		c0.3,0.1,0.5,0.1,0.6,0.2c-1.1-1.7-4.9-7.4-5.3-8c-0.6-0.9-1.3-1.4-2.5-0.8c-0.8,0.4-2,2.3-2.3,2.7c-0.4,0.6-0.5,1.1-0.2,1.6
		S16.4,9.2,16.7,8.3z"></path>
	<path d="M2.1,12.7C2.5,12.1,6.2,7,6.5,6.5C6.9,6,7.4,5.7,7.9,6.1C8.5,6.4,9,7.7,9.3,8.3c0.3,0.9,1.2,0.8,1.6,0.3
		c0.3-0.5,0.2-1-0.2-1.6c-0.3-0.4-1.5-2.3-2.3-2.7C7.2,3.7,6.5,4.2,5.9,5.1c-0.4,0.6-4.2,6.3-5.3,8C0.7,13,0.9,13,1.2,12.9
		C1.4,12.8,1.7,12.8,2.1,12.7z"></path>
</g>
</svg>