<?xml version="1.0" encoding="utf-8"?><!-- Generator: Adobe Illustrator 17.0.2, SVG Export Plug-In . SVG Version: 6.00 Build 0)  --><!DOCTYPE svg PUBLIC "-//W3C//DTD SVG 1.0//EN" "http://www.w3.org/TR/2001/REC-SVG-20010904/DTD/svg10.dtd"><svg xmlns="http://www.w3.org/2000/svg" xmlns:xlink="http://www.w3.org/1999/xlink" version="1.0" id="Layer_1" x="0px" y="0px" width="50px" height="50px" viewBox="0 0 50 50" style="enable-background:new 0 0 50 50;" xml:space="preserve">
<path d="M49.994,28.608c0.019-0.172-0.007-0.352-0.083-0.521c-0.729-1.613-7.149-15.796-7.96-17.112C41.2,9.756,40.528,9,39.5,9  c-0.964,0-1.611,0.713-2.357,1.886c-0.579,0.966-0.968,1.549-0.975,1.56c-0.307,0.459-0.182,1.08,0.277,1.386  c0.458,0.306,1.079,0.182,1.387-0.276c0,0,0.411-0.615,1.012-1.618c0.36-0.566,0.573-0.802,0.677-0.897  c0.106,0.095,0.334,0.346,0.728,0.985c0.503,0.815,4.088,8.616,6.874,14.754C45.171,26.332,41.896,26,36.4,26  c-2.107,0-4.295,0.353-6.226,0.663c-0.671,0.108-1.315,0.212-1.921,0.295C27.683,26.595,26.517,26,25,26  c-1.516,0-2.683,0.595-3.254,0.958c-0.604-0.083-1.249-0.187-1.919-0.295C17.896,26.353,15.707,26,13.6,26  c-5.493,0-8.767,0.331-10.719,0.771c2.786-6.137,6.369-13.931,6.87-14.746c0.412-0.67,0.644-0.913,0.721-0.991  c0.101,0.09,0.312,0.319,0.67,0.881c0.615,1.025,1.025,1.64,1.025,1.64c0.305,0.459,0.926,0.583,1.386,0.277  c0.459-0.306,0.584-0.927,0.278-1.386c-0.007-0.01-0.395-0.594-0.988-1.583C12.111,9.713,11.464,9,10.5,9  c-1.028,0-1.701,0.756-2.452,1.976c-0.81,1.316-7.23,15.499-7.959,17.112c-0.071,0.158-0.098,0.324-0.086,0.485  C0,28.62,0,28.662,0,28.7c0,0.926,0.776,1.274,1.15,1.441C1.644,30.363,2,30.523,2,31.7C2,36.68,4.995,42,13.4,42  c6.37,0,9.6-3.701,9.6-11v-2.464C23.404,28.309,24.116,28,25,28c0.885,0,1.598,0.31,2,0.536V31c0,7.299,3.229,11,9.6,11  C45.005,42,48,36.73,48,31.8c0-1.231,0.35-1.375,0.833-1.574C49.182,30.082,50,29.745,50,28.8C50,28.742,50,28.678,49.994,28.608z   M21,31c0,6.225-2.344,9-7.6,9C4.916,40,4,34.195,4,31.7c0-1.596-0.572-2.418-1.155-2.88C4.348,28.445,7.573,28,13.6,28  c1.947,0,4.051,0.339,5.908,0.638c0.514,0.083,1.014,0.163,1.492,0.234V31z M46,31.8c0,1.924-0.678,8.2-9.4,8.2  c-5.256,0-7.6-2.775-7.6-9v-2.128c0.479-0.071,0.979-0.151,1.493-0.234C32.35,28.339,34.453,28,36.4,28  c6.109,0,9.318,0.466,10.781,0.855C46.586,29.308,46,30.136,46,31.8z"/>
</svg>