<?xml version="1.0" encoding="utf-8"?><!-- Generator: Adobe Illustrator 17.0.2, SVG Export Plug-In . SVG Version: 6.00 Build 0)  --><!DOCTYPE svg PUBLIC "-//W3C//DTD SVG 1.0//EN" "http://www.w3.org/TR/2001/REC-SVG-20010904/DTD/svg10.dtd"><svg xmlns="http://www.w3.org/2000/svg" xmlns:xlink="http://www.w3.org/1999/xlink" version="1.0" id="Layer_1" x="0px" y="0px" width="50px" height="50px" viewBox="0 0 50 50" style="enable-background:new 0 0 50 50;" xml:space="preserve">
<path d="M0,25c0-1.105,0.895-2,2-2c0.429,0,0.824,0.138,1.15,0.368l9.869-4.555C13.115,17.797,13.959,17,15,17  c0.256,0,0.499,0.052,0.724,0.14l7.306-5.845C23.015,11.198,23,11.101,23,11c0-1.105,0.895-2,2-2c1.105,0,2,0.895,2,2  c0,0.011-0.003,0.021-0.003,0.032l7.041,4.225C34.324,15.098,34.649,15,35,15c0.206,0,0.4,0.04,0.587,0.098l10.464-9.66  C46.02,5.296,46,5.151,46,5c0-1.105,0.895-2,2-2c1.105,0,2,0.895,2,2c0,1.105-0.895,2-2,2c-0.206,0-0.4-0.04-0.586-0.097  l-10.465,9.659C36.98,16.703,37,16.849,37,17c0,1.105-0.895,2-2,2s-2-0.895-2-2c0-0.011,0.003-0.021,0.003-0.032l-7.041-4.225  C25.676,12.902,25.351,13,25,13c-0.257,0-0.501-0.053-0.727-0.141l-7.306,5.816C16.985,18.782,17,18.889,17,19c0,1.105-0.895,2-2,2  c-0.429,0-0.824-0.138-1.15-0.368l-9.869,4.555C3.885,26.203,3.041,27,2,27C0.895,27,0,26.105,0,25z M48,29c-1.105,0-2,0.895-2,2  c0,0.151,0.02,0.297,0.051,0.438l-10.465,9.66C35.4,41.04,35.205,41,35,41c-0.178,0-0.347,0.031-0.512,0.074l-7.563-7.563  C26.969,33.347,27,33.178,27,33c0-1.105-0.895-2-2-2c-1.105,0-2,0.895-2,2c0,0.101,0.015,0.198,0.03,0.296l-7.305,5.844  C15.499,39.052,15.256,39,15,39c-0.629,0-1.184,0.296-1.55,0.75l-9.591-1.476C3.569,37.529,2.848,37,2,37c-1.105,0-2,0.895-2,2  s0.895,2,2,2c0.629,0,1.183-0.296,1.55-0.75l9.591,1.475C13.431,42.47,14.152,43,15,43c1.105,0,2-0.895,2-2  c0-0.101-0.015-0.199-0.03-0.296l7.306-5.844C24.501,34.948,24.744,35,25,35c0.178,0,0.347-0.031,0.512-0.074l7.563,7.563  C33.031,42.653,33,42.822,33,43c0,1.105,0.895,2,2,2s2-0.895,2-2c0-0.151-0.02-0.296-0.051-0.438l10.465-9.66  C47.6,32.96,47.794,33,48,33c1.105,0,2-0.895,2-2S49.105,29,48,29z"/>
</svg>