<?xml version="1.0" encoding="utf-8"?><!-- Generator: Adobe Illustrator 17.0.2, SVG Export Plug-In . SVG Version: 6.00 Build 0)  --><!DOCTYPE svg PUBLIC "-//W3C//DTD SVG 1.0//EN" "http://www.w3.org/TR/2001/REC-SVG-20010904/DTD/svg10.dtd"><svg xmlns="http://www.w3.org/2000/svg" xmlns:xlink="http://www.w3.org/1999/xlink" version="1.0" id="Layer_1" x="0px" y="0px" width="50px" height="50px" viewBox="0 0 50 50" style="enable-background:new 0 0 50 50;" xml:space="preserve">
<g>
	<path d="M47.982,1c-0.303,0.005-7.489,0.17-14.458,3.639c-2.521,1.258-4.75,2.847-6.628,4.723   c-2.522,2.522-6.113,6.702-9.381,10.638H9c-0.297,0-0.578,0.132-0.768,0.36l-5,6c-0.22,0.265-0.29,0.624-0.183,0.951   s0.374,0.576,0.708,0.659l6.074,1.519c-0.181,0.229-0.303,0.384-0.343,0.434l-0.115,0.146l-0.055,0.178   c-0.056,0.183-0.114,0.553,0.003,1.127c-0.002,0.003-0.005,0.004-0.007,0.007l-2.158,3.634c-0.565,0.998,0.355,2.712,2.737,5.095   C11.818,42.03,13.305,43,14.341,43c0.248,0,0.469-0.056,0.665-0.167l3.63-2.149c0.229,0.045,0.435,0.066,0.614,0.066   c0.243,0,0.41-0.036,0.507-0.066l0.178-0.055l0.146-0.115c0.051-0.04,0.204-0.161,0.43-0.341l1.518,6.069   c0.083,0.334,0.333,0.602,0.66,0.708C22.792,46.983,22.896,47,23,47c0.23,0,0.458-0.08,0.64-0.231l6-5   C29.868,41.578,30,41.297,30,41v-8.525c3.969-3.297,8.174-6.907,10.639-9.371c1.875-1.878,3.46-4.106,4.713-6.625   C48.803,9.525,48.993,2.324,49,2.021l0.021-1.039L47.982,1z M5.788,26.416L9.468,22h6.397c-1.853,2.258-3.508,4.316-4.668,5.77   L5.788,26.416z M14.229,40.97c-0.296-0.101-1.165-0.521-2.919-2.275c-1.753-1.754-2.176-2.623-2.278-2.92l1.284-2.162   c0.576,0.908,1.447,2.006,2.759,3.318c1.305,1.305,2.399,2.178,3.314,2.76L14.229,40.97z M28,40.531l-4.417,3.681l-1.352-5.409   c1.454-1.164,3.513-2.823,5.769-4.676V40.531z M43.561,15.59c-1.156,2.324-2.615,4.376-4.337,6.101   c-5.065,5.064-18.103,15.446-20.119,17.045c-0.458-0.073-1.917-0.521-4.615-3.22c-2.696-2.696-3.147-4.157-3.221-4.62   c0.813-1.028,3.908-4.928,7.432-9.185c0.008-0.007,0.013-0.016,0.02-0.024c3.338-4.031,7.057-8.378,9.59-10.911   c1.725-1.723,3.779-3.187,6.105-4.348c5.021-2.499,10.294-3.18,12.516-3.363C46.743,5.29,46.049,10.576,43.561,15.59z"/>
	<path d="M8.909,44.657c-0.908,1.887-1.525,3.168-6.875,3.307c0.109-5.186,1.106-5.682,2.985-6.619   c0.761-0.38,1.624-0.81,2.59-1.552l-1.219-1.586c-0.812,0.624-1.55,0.992-2.264,1.348c-2.621,1.308-4.103,2.39-4.103,9.422v1h1   c7.036,0,8.354-1.682,9.687-4.451c0.304-0.631,0.618-1.283,1.095-1.934l-1.612-1.184C9.607,43.208,9.236,43.979,8.909,44.657z"/>
	<path d="M29,16c0,2.757,2.243,5,5,5s5-2.243,5-5s-2.243-5-5-5S29,13.243,29,16z M37,16c0,1.654-1.346,3-3,3s-3-1.346-3-3   s1.346-3,3-3S37,14.346,37,16z"/>
</g>
</svg>